Coordinates
version=1
nRows=13
nColumns=40
inDegrees=yes

Units are S.I. units (second, meters, Newtons, ...)
Angles are in degrees.

endheader
time	pelvis_tilt	pelvis_list	pelvis_rotation	pelvis_tx	pelvis_ty	pelvis_tz	hip_flexion_r	hip_adduction_r	hip_rotation_r	knee_angle_r	knee_angle_r_beta	ankle_angle_r	subtalar_angle_r	mtp_angle_r	hip_flexion_l	hip_adduction_l	hip_rotation_l	knee_angle_l	knee_angle_l_beta	ankle_angle_l	subtalar_angle_l	mtp_angle_l	lumbar_extension	lumbar_bending	lumbar_rotation	arm_flex_r	arm_add_r	arm_rot_r	elbow_flex_r	pro_sup_r	wrist_flex_r	wrist_dev_r	arm_flex_l	arm_add_l	arm_rot_l	elbow_flex_l	pro_sup_l	wrist_flex_l	wrist_dev_l
     29.43500000	     -6.18740580	     -4.18956423	     -1.76702222	      1.03823154	      0.93247287	      0.42021766	     39.63023560	     -8.35492114	     -6.28638067	     62.03141137	     62.03141137	     -0.18784888	    -14.62752429	      0.46653497	     15.08649645	     -5.40602933	    -10.64890320	     19.61529902	     19.61529902	     13.03330501	     -4.54363389	     -3.57316991	    -14.72036629	      4.74019204	      0.64261152	     -1.84139168	    -16.51489587	     -4.46509767	     41.32292960	     46.69526615	      0.00000000	      0.00000000	      5.30461143	    -17.05930188	     -4.67090120	     77.59841557	     47.07074382	      0.00000000	      0.00000000
     29.44657143	     -6.14066464	     -3.99243760	     -2.02006938	      1.03742958	      0.93273216	      0.42007735	     39.80325113	     -8.49826471	     -6.42094285	     58.76084555	     58.76084555	     -0.39792094	    -14.05272643	      0.79486666	     14.10772853	     -5.14750265	    -11.04418824	     18.93404731	     18.93404731	     13.29096763	     -4.20643959	     -3.63848795	    -14.86736377	      4.56626066	      0.94488663	     -3.51268403	    -17.04380482	     -4.62696287	     39.48292866	     46.74744218	      0.00000000	      0.00000000	      6.33357757	    -17.05696533	     -5.03656209	     79.28634626	     47.14282734	      0.00000000	      0.00000000
     29.45814286	     -6.14370351	     -3.83651491	     -2.20977820	      1.03667374	      0.93279339	      0.42002444	     39.79858631	     -8.61309110	     -6.73921870	     55.07428925	     55.07428925	     -0.67908167	    -13.42954518	      1.17996155	     13.20378741	     -4.92947605	    -11.40789043	     18.26963938	     18.26963938	     13.52491572	     -3.82853212	     -3.76733595	    -14.91453949	      4.45316940	      1.06315038	     -4.99568172	    -17.45982028	     -4.80211232	     37.60478056	     46.80770449	      0.00000000	      0.00000000	      7.16591261	    -17.14398481	     -5.18386453	     81.02035526	     47.19686758	      0.00000000	      0.00000000
     29.46971429	     -6.20758047	     -3.55070195	     -2.39566074	      1.03595864	      0.93255173	      0.42012758	     39.66803908	     -8.78061249	     -7.02823099	     50.98294578	     50.98294578	     -1.42889262	    -12.96171108	      0.20545474	     12.35733628	     -4.57771889	    -11.80610894	     17.55924634	     17.55924634	     13.50087425	     -3.48968292	     -4.57976497	    -14.85818885	      4.10820978	      0.45357217	     -4.47616313	    -17.12441867	     -6.48164245	     31.99301303	     47.02975992	      0.00000000	      0.00000000	      7.14100066	    -17.77429904	     -5.87259915	     84.02848524	     47.39443542	      0.00000000	      0.00000000
     29.48128571	     -6.23943686	     -3.31872909	     -2.54239802	      1.03538393	      0.93223339	      0.42032178	     39.30702547	     -8.87928932	     -7.48968638	     46.63405549	     46.63405549	     -1.68204970	    -12.04545910	      0.67758314	     11.48793980	     -4.27615680	    -12.14430425	     16.90196148	     16.90196148	     13.74920777	     -3.07741578	     -4.74854827	    -14.86191337	      3.90132602	      0.63177757	     -6.10790502	    -17.44137181	     -6.60853687	     30.87366961	     47.05433950	      0.00000000	      0.00000000	      8.03727530	    -17.90464423	     -6.03225883	     85.83806525	     47.45482133	      0.00000000	      0.00000000
     29.49285714	     -6.32888292	     -3.07994323	     -2.63776730	      1.03492660	      0.93167234	      0.42059751	     38.78864050	     -8.94590607	     -8.10341546	     41.98099507	     41.98099507	     -1.95812742	    -10.93083619	      1.14275455	     10.69621619	     -3.96862937	    -12.43169862	     16.26970444	     16.26970444	     13.98926502	     -2.63654266	     -5.01955739	    -14.76733525	      3.70103520	      0.68072352	     -7.58646543	    -17.67544956	     -6.73550037	     29.82628142	     47.08126725	      0.00000000	      0.00000000	      8.75053654	    -18.08699269	     -6.13320297	     87.62599857	     47.50780274	      0.00000000	      0.00000000
     29.50442857	     -6.52375137	     -2.84941785	     -2.72120977	      1.03461287	      0.93079374	      0.42116142	     38.17883466	     -8.91216280	     -8.85038928	     37.08091923	     37.08091923	     -2.26586809	     -9.61762427	      1.78011365	     10.02695828	     -3.69177232	    -12.68841461	     15.66485634	     15.66485634	     14.23846994	     -2.22456401	     -5.29664671	    -14.45063356	      3.46658545	      0.61085917	     -9.03216137	    -17.79789016	     -6.82210589	     29.01534109	     47.10018609	      0.00000000	      0.00000000	      9.43446838	    -18.36268373	     -6.30214560	     89.19461405	     47.55597480	      0.00000000	      0.00000000
     29.51600000	     -6.47946202	     -2.49828324	     -2.79120755	      1.03473723	      0.92997968	      0.42174210	     37.10841231	     -8.96664629	     -9.72757638	     32.01129339	     32.01129339	     -2.69261619	     -7.74663329	      1.43904293	      8.93275989	     -3.26273662	    -13.15394365	     14.76515483	     14.76515483	     14.11909154	     -1.57272908	     -6.63071564	    -14.51145135	      3.07641807	      0.40029456	    -10.04967075	    -17.75277572	     -7.49038977	     27.69585059	     47.14335304	      0.00000000	      0.00000000	      9.45208642	    -18.84258893	     -6.48371712	     92.54718649	     47.68736553	      0.00000000	      0.00000000
     29.52757143	     -6.51060953	     -2.20754335	     -2.80700348	      1.03499207	      0.92893237	      0.42253436	     35.95518002	     -8.82517373	    -10.60673779	     26.93257778	     26.93257778	     -2.71926544	     -5.66754369	      2.40627060	      8.01172033	     -2.90088503	    -13.36173544	     14.06911199	     14.06911199	     14.37013257	     -1.06561453	     -6.94606359	    -14.41307321	      2.83536995	      0.48771331	    -11.52414212	    -17.78076552	     -7.58756493	     27.13053784	     47.14936400	      0.00000000	      0.00000000	     10.12462400	    -18.85425755	     -6.73988694	     94.13301543	     47.74974413	      0.00000000	      0.00000000
     29.53914286	     -6.51241247	     -1.83131668	     -2.83120670	      1.03559401	      0.92757812	      0.42359107	     34.78465311	     -8.70766162	    -11.57319770	     22.18382647	     22.18382647	     -2.75500660	     -3.39502471	      3.71065107	      7.04939645	     -2.47533000	    -13.65448192	     13.41728398	     13.41728398	     14.69289769	     -0.53383680	     -7.38447994	    -14.17531403	      2.38422271	      0.46895027	    -12.98652064	    -17.72275977	     -7.69568796	     26.80845062	     47.14673691	      0.00000000	      0.00000000	     10.65746309	    -19.01312540	     -6.91114354	     95.83868204	     47.80529971	      0.00000000	      0.00000000
     29.55071429	     -6.44054896	     -1.46536521	     -2.83609567	      1.03645502	      0.92613135	      0.42488576	     33.54089155	     -8.53136802	    -12.57407468	     17.89261215	     17.89261215	     -2.51349056	     -0.87078036	      5.30602127	      5.98991285	     -2.06673396	    -13.93237871	     12.74852433	     12.74852433	     14.99083418	      0.06578855	     -7.87570613	    -14.02502275	      1.93871660	      0.49608685	    -14.39834072	    -17.59623932	     -7.81848965	     26.68690634	     47.13708387	      0.00000000	      0.00000000	     11.09943608	    -19.15996029	     -7.04792119	     97.70617745	     47.86248023	      0.00000000	      0.00000000
     29.56228571	     -6.32805449	     -0.97628159	     -2.83668689	      1.03747256	      0.92452778	      0.42620198	     32.65198380	     -8.64360569	    -13.97986947	     14.90571085	     14.90571085	     -0.74476247	      2.65630479	     10.38295417	      4.81009337	     -1.50973029	    -14.27136667	     11.89941352	     11.89941352	     14.91085473	      0.71288957	     -9.18818444	    -13.98990846	      1.38803372	      0.24875982	    -16.09886709	    -17.49400097	     -8.36496622	     28.03618881	     47.05454898	      0.00000000	      0.00000000	     10.94332258	    -19.56708424	     -7.39146033	    100.53949395	     47.98747066	      0.00000000	      0.00000000
     29.57385714	     -6.20759765	     -0.66888683	     -2.79530002	      1.03853285	      0.92288210	      0.42791721	     31.56105785	     -8.32732803	    -14.62895202	     11.94819108	     11.94819108	     -0.52277928	      4.32235572	     11.81038597	      3.82670834	     -1.20672476	    -14.31396312	     11.50859509	     11.50859509	     15.31693232	      1.00532698	     -9.46618167	    -13.86689288	      1.01897725	      0.38480344	    -17.34530939	    -17.30779069	     -8.38946022	     27.86535402	     47.04045370	      0.00000000	      0.00000000	     11.48191771	    -19.53442628	     -7.59119088	    101.84020397	     48.04003700	      0.00000000	      0.00000000
